<svg id="Capa_1" enable-background="new 0 0 512.071 512.071" height="512" viewBox="0 0 512.071 512.071" width="512" xmlns="http://www.w3.org/2000/svg"><g><ellipse cx="256.036" cy="86.094" rx="86.063" ry="86.094" transform="matrix(1 -.002 .002 1 -.166 .495)"/><path d="m152.521 437.343h207.03c4.334 0 7.847-3.513 7.847-7.847v-27.106c0-4.334-3.513-7.847-7.847-7.847h-207.03c-4.334 0-7.847 3.513-7.847 7.847v27.105c0 4.335 3.513 7.848 7.847 7.848z"/><path d="m105.379 499.553v4.671c0 4.334 3.513 7.847 7.847 7.847h285.618c4.334 0 7.847-3.513 7.847-7.847v-4.671c0-17.789-14.421-32.21-32.21-32.21h-236.891c-17.79 0-32.211 14.421-32.211 32.21z"/><path d="m311.838 269.829c-1.242.095-2.492.159-3.757.159h-104.09c-1.273 0-2.53-.064-3.778-.16l-19.723 94.716h150.924z"/><path d="m311.58 239.988c10.421 0 18.899-8.479 18.899-18.9s-8.478-18.899-18.899-18.899h-111.089c-10.421 0-18.899 8.478-18.899 18.899s8.478 18.9 18.899 18.9z"/></g></svg>